<?xml version="1.0" encoding="UTF-8"?>
<svg id="Layer_2" data-name="Layer 2" xmlns="http://www.w3.org/2000/svg" viewBox="0 0 284.95 62.61">
  <defs>
    <style>
      .cls-1 {
        fill: #ab8329;
      }
    </style>
  </defs>
  <g id="Layer_1-2" data-name="Layer 1">
    <g>
      <path class="cls-1" d="M26.93,29.57l-1.25,.38s-.02,.02-.05,.02c-.14,.02-.29,.1-.41,.17-.12,.07-.22,.22-.24,.38s.02,.29,.12,.38c.07,.12,.17,.22,.29,.29l.05,.05c.94,.7,1.97,1.06,3.12,1.1,.36,0,.72-.05,1.08-.17,1.01-.41,1.32-1.1,.91-2.09-.07-.17-.17-.31-.26-.43-.02-.05-.05-.1-.07-.12-.07-.12-.05-.22,.1-.29l.19-.07s0-.02,.02-.02c.07-.02,.17-.07,.24-.12,1.09-.5,2.15-1.04,3.21-1.62-.26,.62-.48,1.26-.64,1.93-.1,.5-.12,1.03-.1,1.54,0,.31,.12,.58,.36,.79,.29,.22,.62,.31,.98,.29,.36,0,.7-.12,.96-.34s.48-.48,.67-.77c.22-.31,.46-.62,.67-.94,.26-.36,.55-.74,.82-1.13l.05-.05s.05-.1,.07-.12,.07-.02,.12-.05c-.02,.12-.05,.24-.07,.36-.05,.24-.1,.48-.14,.74-.1,.53-.05,1.03,.14,1.51,.14,.38,.41,.62,.82,.72,.67,.19,1.27,.05,1.8-.41,.34-.31,.65-.67,.91-1.06,.08-.12,.16-.23,.24-.35-.08,.25-.16,.5-.22,.75-.05,.22-.05,.38,.02,.5,.05,.12,.17,.19,.38,.26,.22,.07,.41,.12,.62,.14,.46,.07,.77-.12,.94-.53,.02-.07,.07-.14,.1-.22,.05-.14,.12-.29,.24-.41,.1,.07,.17,.14,.22,.24,.02,.02,.05,.07,.07,.1,.22,.34,.53,.6,.89,.82,.53,.24,1.08,.31,1.68,.22,.58-.1,1.08-.38,1.49-.86,.65-.79,1.18-1.66,1.61-2.57,.17-.38,.46-.62,.84-.74,.41-.11,.81-.26,1.22-.41-.26,.62-.49,1.27-.64,1.95-.1,.5-.12,1.03-.1,1.54,0,.31,.12,.58,.36,.79,.29,.22,.62,.31,.98,.29,.36,0,.7-.12,.96-.34s.48-.48,.67-.77c.22-.31,.46-.62,.67-.94,.26-.36,.55-.74,.82-1.13l.05-.05s.05-.1,.07-.12,.07-.02,.12-.05c-.02,.12-.05,.24-.07,.36-.05,.24-.1,.48-.14,.74-.1,.53-.05,1.03,.14,1.51,.14,.38,.41,.62,.82,.72,.67,.19,1.27,.05,1.8-.41,.34-.31,.65-.67,.91-1.06,.2-.28,.38-.55,.57-.82-.11,.5-.13,.99-.02,1.49,.1,.38,.34,.62,.72,.74,.72,.26,1.32,.1,1.82-.5,.22-.24,.41-.48,.58-.74l.72-1.01c.22-.29,.43-.58,.65-.86l.02-.05s.05-.07,.07-.1c.02-.02,.07-.05,.14-.05-.02,.1-.05,.19-.07,.29l-.14,.62c-.12,.48-.14,.96-.05,1.46,.12,.5,.41,.84,.91,.96,.84,.24,1.51,.02,2.04-.67,.14-.19,.29-.38,.41-.58,.17-.22,.31-.46,.46-.7,.21-.33,.45-.66,.66-.96,0,.03,0,.05-.01,.08-.05,.48,.05,.96,.26,1.42,.22,.48,.6,.84,1.18,1.1,.48,.22,.96,.31,1.44,.31,.79,.02,1.46-.19,2.04-.65,.84-.65,1.49-1.46,1.94-2.42,.12-.31,.36-.48,.7-.55,.7-.12,1.34-.34,1.97-.65,.31-.17,.6-.36,.84-.62,.17-.17,.12-.31-.1-.41-.12-.05-.24-.05-.36-.02-.12,.02-.22,.07-.34,.14-.5,.34-1.08,.58-1.7,.72-.17,.05-.29,.05-.31,.02-.05-.02-.05-.14,0-.31,.12-.38,.17-.77,.19-1.15,.1-.94-.22-1.73-.96-2.33-.38-.29-.82-.43-1.27-.43-.48,0-.91,.14-1.3,.43-.12,.12-.26,.19-.43,.24-.55,.1-1.03,.34-1.44,.7-.8,.68-1.4,1.46-1.8,2.34-.07,.1-.14,.2-.22,.3-.5,.65-1.03,1.3-1.56,1.94l-.19,.24c-.31,.41-.65,.82-1.01,1.18v-.02h-.02s-.05-.02-.07-.05l.1-.34c.07-.26,.14-.53,.22-.79,.41-1.2,.89-2.38,1.46-3.5,.55-1.13,1.1-2.28,1.66-3.41,.46-.89,.89-1.8,1.32-2.71,.22-.41,.41-.82,.58-1.22,.12-.26,.24-.55,.36-.84,.17-.36,.12-.72-.14-1.03-.22-.26-.5-.46-.82-.58-.22-.07-.36-.1-.46-.07-.1,.05-.19,.17-.31,.36-.41,.74-.82,1.49-1.2,2.23-.74,1.44-1.42,2.9-2.06,4.39-.14,.36-.29,.7-.46,1.03-.07,.22-.14,.34-.22,.36-.07,.02-.19-.05-.38-.22-.46-.38-1.01-.58-1.63-.6-.65-.02-1.22,.24-1.75,.77-.07,.07-.12,.12-.17,.19-.14,.14-.29,.29-.41,.46-.57,.77-1.03,1.6-1.39,2.47-.81,1.04-1.67,2.05-2.57,3.02-.02,.02-.02,.05-.05,.07-.1,.12-.22,.22-.36,.29,.02-.34,.07-.65,.17-.91,.29-.89,.65-1.73,1.06-2.54,.07-.12,.12-.22,.17-.34,.36-.67,.7-1.34,1.01-2.02,.31-.55,.17-.96-.41-1.22-.19-.07-.41-.12-.62-.14-.36-.07-.65,.07-.86,.41-.02,.02-.05,.07-.07,.12-.1,.17-.22,.29-.34,.41-.02-.02-.05-.02-.07-.05s-.05-.05-.07-.07c-.41-.5-.98-.82-1.68-.91-.7-.07-1.37,.17-1.97,.72-.17,.17-.31,.34-.48,.5-.43,.54-.78,1.12-1.1,1.72h-.05s-.07,.04-.12,.06c-.1,.02-.19,.07-.31,.1-.38,.12-.79,.24-1.2,.31-.02-.07-.02-.12,0-.19,0-.07,.02-.12,.05-.17,.02-.02,.02-.07,.02-.1,.14-.46,.24-.89,.26-1.34,0-.84-.41-1.39-1.25-1.61-.46-.12-.89-.05-1.3,.17-.5,.26-.98,.6-1.42,.98-.17,.14-.31,.29-.48,.41l-.24,.19c.02-.14,.05-.26,.1-.34,.1-.17,.19-.36,.26-.53l1.1-2.09c.79-1.46,1.54-2.98,2.18-4.54,.14-.31,.19-.58,.14-.77-.05-.19-.19-.41-.46-.62-.22-.17-.46-.29-.72-.36-.24-.07-.41-.1-.5-.05-.12,.05-.22,.19-.34,.41-.05,.1-.1,.19-.12,.26-.86,1.61-1.68,3.24-2.45,4.9-.22,.5-.46,1.01-.67,1.51-.66,1.39-1.29,2.8-1.9,4.2v.02c-.86,1.08-1.74,2.14-2.68,3.14-.02,.02-.02,.05-.05,.07-.1,.12-.22,.22-.36,.29,.02-.34,.07-.65,.17-.91,.29-.89,.65-1.73,1.06-2.54,.07-.12,.12-.22,.17-.34,.36-.67,.7-1.34,1.01-2.02,.31-.55,.17-.96-.41-1.22-.19-.07-.41-.12-.62-.14-.36-.07-.65,.07-.86,.41-.02,.02-.05,.07-.07,.12-.1,.17-.22,.29-.34,.41-.02-.02-.05-.02-.07-.05s-.05-.05-.07-.07c-.41-.5-.98-.82-1.68-.91-.7-.07-1.37,.17-1.97,.72-.17,.17-.31,.34-.48,.5-.43,.54-.78,1.12-1.1,1.72,0,0-.02,0-.03,.01h-.02c-.17,.07-.34,.17-.5,.24-.5,.26-.98,.5-1.49,.72-.82,.36-1.63,.72-2.45,1.06-.17,.07-.26,.1-.34,.07-.07-.02-.14-.1-.24-.22-.26-.31-.48-.65-.62-1.01-.17-.43-.14-.84,.12-1.25,.46-.7,1.1-1.1,1.92-1.25,.1-.02,.19-.02,.26,0,.17,.02,.22,.1,.19,.24-.07,.22-.14,.41-.26,.6-.12,.22-.29,.41-.46,.6t-.02,.05c-.07,.07-.12,.14-.14,.22-.02,.07-.02,.17,0,.26,.12,.24,.29,.41,.53,.48,.22,.1,.46,.1,.7-.02,.41-.22,.74-.53,.98-.91,.26-.43,.29-.86,.1-1.3-.19-.41-.48-.74-.84-1.01-1.15-.74-2.3-.77-3.48-.1-.7,.38-1.18,.94-1.44,1.66-.29,.72-.22,1.49,.19,2.33,.17,.29,.31,.58,.46,.84,.14,.22,.22,.36,.19,.43-.02,.07-.19,.14-.46,.22-.1,.02-.19,.05-.31,.07Zm47.47-4.94s.07-.05,.1-.07c.24-.22,.38-.17,.43,.14,.02,.12,.02,.26,.02,.38,.02,.07,.02,.12,.02,.19-.02,.53-.12,1.03-.31,1.54-.02,.07-.05,.12-.1,.14-.05,.02-.1,.02-.14-.05-.26-.34-.43-.72-.46-1.13-.02-.41,.12-.79,.43-1.15Zm-2.69,2.16c.12-.22,.26-.41,.41-.6,.05-.07,.1-.1,.17-.12,.05,0,.1,.05,.12,.14,.31,.77,.82,1.34,1.54,1.73,.14,.07,.17,.19,.1,.36-.46,.98-1.13,1.82-2.02,2.47-.55,.36-.91,.24-1.13-.41-.07-.29-.12-.58-.1-.86,.07-.98,.36-1.9,.91-2.71Zm-7.75-1.37c.22-.26,.46-.48,.72-.65,.12-.07,.19-.1,.26-.1,.07,.02,.12,.07,.19,.19,.1,.19,.17,.41,.22,.62,.02,.12,.07,.22,.1,.31,.02,.07,.02,.12,0,.17-.02,.05-.07,.1-.12,.14l-.07,.07c-.7,.84-1.37,1.66-2.06,2.47l-.05,.05c-.46,.58-.94,1.13-1.44,1.66-.02,0-.02,.02-.05,.05s-.07,.05-.1,.07c-.02,.02-.07,.05-.14,.07,.07-.53,.22-1.01,.38-1.46,.5-1.34,1.22-2.57,2.16-3.67Zm-8.64-.05c.19-.24,.41-.43,.67-.6,.12-.07,.22-.12,.29-.1,.07,.02,.12,.1,.17,.22,.1,.22,.17,.41,.24,.62,.02,.07,.05,.17,.07,.24,.02,.07,.02,.12,0,.17-.02,.07-.07,.12-.1,.17l-.02,.02c-.17,.22-.36,.43-.53,.65l-1.82,2.16c-.31,.38-.65,.77-.98,1.13-.1,.12-.19,.22-.31,.31l-.14,.19c-.05-.1-.07-.17-.07-.24,0-.05,0-.1,.02-.17v-.02c.48-1.78,1.32-3.36,2.52-4.75Zm-9.46,1.99c.5-.58,1.03-1.13,1.63-1.63,.58-.5,1.03-.82,1.39-.94-.1,.48-.24,.94-.41,1.37,0,.02,0,.07-.02,.1-.12,.34-.26,.67-.41,.98-.02,.1-.07,.19-.12,.26-.02,.07-.07,.14-.1,.22-.05,.07-.12,.12-.22,.14-.65,.22-1.3,.41-1.94,.62-.22,.07-.46,.14-.7,.22,.1-.31,.38-.77,.89-1.34Zm-.84,2.45c.48-.17,.98-.36,1.49-.53,.19-.07,.38-.12,.6-.19-.34,.65-.7,1.2-1.1,1.66-.07,.1-.19,.12-.31,.05-.31-.17-.55-.41-.74-.7-.1-.14-.07-.24,.07-.29Zm-7.46-4.44c.19-.24,.41-.43,.67-.6,.12-.07,.22-.12,.29-.1,.07,.02,.12,.1,.17,.22,.1,.22,.17,.41,.24,.62,.02,.07,.05,.17,.07,.24,.02,.07,.02,.12,0,.17-.02,.07-.07,.12-.1,.17l-.02,.02c-.17,.22-.36,.43-.53,.65l-1.82,2.16c-.31,.38-.65,.77-.98,1.13-.1,.12-.19,.22-.31,.31l-.14,.19c-.05-.1-.07-.17-.07-.24,0-.05,0-.1,.02-.17v-.02c.48-1.78,1.32-3.36,2.52-4.75Zm-9.67,4.78c.17-.02,.29,.02,.31,.19,.02,.1,.02,.19,.05,.26v.07c0,.17-.02,.31-.05,.41-.07,.14-.17,.22-.31,.19-.46-.07-.86-.24-1.22-.46-.17-.12-.17-.22,.02-.29l.77-.24,.43-.14Z"/>
      <path class="cls-1" d="M39.29,21.77c.36,0,.7-.14,1.03-.22,.82-.14,1.42-.62,1.87-1.27,.14-.17,.24-.36,.29-.55,.07-.41-.12-.82-.5-.96-.17-.1-.31-.07-.41,.12-.12,.34-.38,.6-.65,.79-.65,.5-1.3,.96-1.99,1.39-.12,.07-.29,.1-.26,.29,0,.17,.14,.24,.26,.34,.12,.07,.24,.1,.36,.07Z"/>
      <path class="cls-1" d="M222.2,28.66l-.82,2.16c-.7,1.87-1.54,3.7-2.5,5.45-.46,.86-1.01,1.63-1.7,2.33-.14,.17-.31,.29-.5,.36-.46,.19-.79,.05-.98-.41-.02-.05-.05-.1-.07-.14s-.07-.1-.14-.14c-.12-.07-.29-.1-.48-.07s-.34,.07-.46,.17c-.1,.07-.14,.19-.12,.36,0,.17,.05,.31,.17,.48,.07,.12,.17,.19,.29,.26,.17,.12,.36,.19,.58,.24,.79,.22,1.61,.22,2.42,.02,.86-.19,1.56-.62,2.09-1.32,.86-1.18,1.58-2.4,2.16-3.72,.89-1.85,1.75-3.7,2.54-5.57,.5-1.18,.96-2.35,1.37-3.55,.26-.7,.05-1.25-.6-1.61-.17-.12-.38-.19-.6-.24-.14-.02-.26-.02-.34,0-.07,.05-.17,.14-.24,.29l-.1,.19c-.07,.17-.14,.31-.26,.43-.02-.02-.05-.02-.07-.05-.02-.02-.05-.07-.07-.1-.41-.5-.96-.79-1.66-.89-.7-.07-1.34,.14-1.94,.67-.17,.17-.31,.36-.48,.55-.67,.85-1.18,1.77-1.58,2.75-.79,1.01-1.62,2-2.5,2.94-.02,.02-.02,.05-.05,.07-.1,.12-.22,.22-.36,.29,.02-.34,.07-.65,.17-.91,.29-.89,.65-1.73,1.06-2.54,.07-.12,.12-.22,.17-.34,.36-.67,.7-1.34,1.01-2.02,.31-.55,.17-.96-.41-1.22-.19-.07-.41-.12-.62-.14-.36-.07-.65,.07-.86,.41-.02,.02-.05,.07-.07,.12-.1,.17-.22,.29-.34,.41-.02-.02-.05-.02-.07-.05s-.05-.05-.07-.07c-.41-.5-.98-.82-1.68-.91-.7-.07-1.37,.17-1.97,.72-.17,.17-.31,.34-.48,.5-1.06,1.34-1.78,2.86-2.16,4.54-.1,.5-.12,1.03-.1,1.54,0,.31,.12,.58,.36,.79,.29,.22,.62,.31,.98,.29,.36,0,.7-.12,.96-.34s.48-.48,.67-.77c.22-.31,.46-.62,.67-.94,.26-.36,.55-.74,.82-1.13l.05-.05s.05-.1,.07-.12,.07-.02,.12-.05c-.02,.12-.05,.24-.07,.36-.05,.24-.1,.48-.14,.74-.1,.53-.05,1.03,.14,1.51,.14,.38,.41,.62,.82,.72,.67,.19,1.27,.05,1.8-.41,.34-.31,.65-.67,.91-1.06,.19-.26,.36-.52,.55-.78-.07,.41-.11,.82-.07,1.24,.02,.46,.26,.77,.67,.94,.7,.26,1.32,.14,1.82-.38,.17-.17,.31-.36,.43-.53,.29-.41,.58-.82,.89-1.22l.77-1.06s.02-.05,.05-.07c.02-.05,.05-.1,.07-.14,.02-.02,.07-.05,.14-.07,.02,.05,.05,.1,.05,.12-.02,.05-.05,.1-.07,.12t-.02,.05Zm-7.68-2.74c-.02,.07-.07,.12-.1,.17l-.02,.02c-.17,.22-.36,.43-.53,.65l-1.82,2.16c-.31,.38-.65,.77-.98,1.13-.1,.12-.19,.22-.31,.31l-.14,.19c-.05-.1-.07-.17-.07-.24,0-.05,0-.1,.02-.17v-.02c.48-1.78,1.32-3.36,2.52-4.75,.19-.24,.41-.43,.67-.6,.12-.07,.22-.12,.29-.1,.07,.02,.12,.1,.17,.22,.1,.22,.17,.41,.24,.62,.02,.07,.05,.17,.07,.24,.02,.07,.02,.12,0,.17Zm7.13,1.82c-.7,.89-1.44,1.75-2.21,2.59t-.02,.05s-.05,.02-.07,.05-.07,.05-.12,.05c-.05-.05-.07-.1-.05-.14,0-.05,0-.1,.02-.14v-.05c.5-1.82,1.37-3.46,2.62-4.87,.17-.19,.36-.36,.58-.5,.12-.07,.22-.12,.29-.1,.05,.02,.1,.1,.17,.22,.1,.17,.17,.34,.19,.5l.14,.38s.02,.1,0,.14c-.02,.05-.07,.1-.1,.14l-1.44,1.68Z"/>
      <path class="cls-1" d="M246.85,30.48c.22,.48,.6,.84,1.18,1.1,.48,.22,.96,.31,1.44,.31,.79,.02,1.46-.19,2.04-.65,.84-.65,1.49-1.46,1.94-2.42,.12-.31,.36-.48,.7-.55,.7-.12,1.34-.34,1.97-.65,.31-.17,.6-.36,.84-.62,.17-.17,.12-.31-.1-.41-.12-.05-.24-.05-.36-.02-.12,.02-.22,.07-.34,.14-.5,.34-1.08,.58-1.7,.72-.17,.05-.29,.05-.31,.02-.05-.02-.05-.14,0-.31,.12-.38,.17-.77,.19-1.15,.1-.94-.22-1.73-.96-2.33-.38-.29-.82-.43-1.27-.43-.48,0-.91,.14-1.3,.43-.12,.12-.26,.19-.43,.24-.55,.1-1.03,.34-1.44,.7-.79,.67-1.38,1.44-1.78,2.31-.87,1.14-1.77,2.26-2.68,3.35-.02,.02-.05,.05-.07,.07-.02,.05-.07,.1-.12,.14-.05,.05-.12,.1-.19,.12,.05-.38,.12-.74,.24-1.06,.7-1.97,1.51-3.86,2.5-5.71,.29-.6,.58-1.18,.86-1.75,.1-.22,.26-.29,.48-.26h.07c.48,0,.96,.02,1.42,.1h.05c.14,.02,.29,.05,.41,.1,.12,.05,.24,.14,.31,.29,.02,.07,.07,.12,.14,.14,.07,.02,.12,.02,.19-.02,.14-.1,.19-.22,.14-.38-.1-.26-.26-.43-.53-.55-.34-.17-.7-.26-1.08-.34-.17-.02-.31-.05-.48-.07-.1-.02-.19-.05-.31-.07-.17-.02-.22-.12-.14-.29,.02-.02,.02-.07,.05-.12,.12-.22,.22-.43,.34-.65,.34-.74,.67-1.49,1.01-2.23,.12-.26,.12-.5,0-.77-.19-.38-.48-.65-.89-.82-.24-.1-.41-.12-.53-.1-.12,.05-.22,.19-.34,.41l-.14,.24c-.7,1.22-1.34,2.47-1.92,3.74-.1,.26-.29,.38-.55,.36-.24-.02-.48-.02-.72,0-.6,.07-1.2-.02-1.78-.26-.02-.02-.07-.02-.1-.02-.05,0-.1,.02-.12,.05-.02,.02-.02,.07-.02,.1,0,.05,0,.1,.02,.12,.17,.31,.41,.55,.74,.7,.41,.17,.86,.26,1.32,.29,.29,0,.46,.02,.48,.07,.02,.07-.02,.22-.14,.48-.36,.82-.72,1.63-1.08,2.47-.27,.59-.53,1.18-.79,1.78h-.02c-.17,.07-.34,.17-.5,.24-.5,.26-.98,.5-1.49,.72-.82,.36-1.63,.72-2.45,1.06-.17,.07-.26,.1-.34,.07-.07-.02-.14-.1-.24-.22-.26-.31-.48-.65-.62-1.01-.17-.43-.14-.84,.12-1.25,.46-.7,1.1-1.1,1.92-1.25,.1-.02,.19-.02,.26,0,.17,.02,.22,.1,.19,.24-.07,.22-.14,.41-.26,.6-.12,.22-.29,.41-.46,.6t-.02,.05c-.07,.07-.12,.14-.14,.22-.02,.07-.02,.17,0,.26,.12,.24,.29,.41,.53,.48,.22,.1,.46,.1,.7-.02,.41-.22,.74-.53,.98-.91,.26-.43,.29-.86,.1-1.3-.19-.41-.48-.74-.84-1.01-1.15-.74-2.3-.77-3.48-.1-.7,.38-1.18,.94-1.44,1.66-.16,.39-.2,.79-.15,1.21-.42,.23-.87,.42-1.36,.54-.17,.05-.29,.05-.31,.02-.05-.02-.05-.14,0-.31,.12-.38,.17-.77,.19-1.15,.1-.94-.22-1.73-.96-2.33-.38-.29-.82-.43-1.27-.43-.48,0-.91,.14-1.3,.43-.12,.12-.26,.19-.43,.24-.55,.1-1.03,.34-1.44,.7-1.39,1.18-2.18,2.66-2.35,4.46-.05,.48,.05,.96,.26,1.42,.22,.48,.6,.84,1.18,1.1,.48,.22,.96,.31,1.44,.31,.79,.02,1.46-.19,2.04-.65,.84-.65,1.49-1.46,1.94-2.42,.12-.31,.36-.48,.7-.55,.66-.11,1.28-.32,1.88-.61,.04,.12,.08,.23,.14,.35,.17,.29,.31,.58,.46,.84,.14,.22,.22,.36,.19,.43-.02,.07-.19,.14-.46,.22-.1,.02-.19,.05-.31,.07l-1.25,.38s-.02,.02-.05,.02c-.14,.02-.29,.1-.41,.17-.12,.07-.22,.22-.24,.38s.02,.29,.12,.38c.07,.12,.17,.22,.29,.29l.05,.05c.94,.7,1.97,1.06,3.12,1.1,.36,0,.72-.05,1.08-.17,1.01-.41,1.32-1.1,.91-2.09-.07-.17-.17-.31-.26-.43-.02-.05-.05-.1-.07-.12-.07-.12-.05-.22,.1-.29l.19-.07s0-.02,.02-.02c.07-.02,.17-.07,.24-.12,1.11-.5,2.17-1.05,3.24-1.64-.27,.66-.5,1.35-.67,2.07-.14,.5-.17,1.01-.05,1.51,.07,.31,.24,.58,.5,.74,.36,.19,.77,.26,1.18,.24,.41-.02,.79-.22,1.1-.55,.17-.19,.34-.38,.46-.6,.37-.59,.79-1.22,1.24-1.86,0,.04-.01,.07-.02,.11-.05,.48,.05,.96,.26,1.42Zm5.5-5.86s.07-.05,.1-.07c.24-.22,.38-.17,.43,.14,.02,.12,.02,.26,.02,.38,.02,.07,.02,.12,.02,.19-.02,.53-.12,1.03-.31,1.54-.02,.07-.05,.12-.1,.14-.05,.02-.1,.02-.14-.05-.26-.34-.43-.72-.46-1.13-.02-.41,.12-.79,.43-1.15Zm-2.69,2.16c.12-.22,.26-.41,.41-.6,.05-.07,.1-.1,.17-.12,.05,0,.1,.05,.12,.14,.31,.77,.82,1.34,1.54,1.73,.14,.07,.17,.19,.1,.36-.46,.98-1.13,1.82-2.02,2.47-.55,.36-.91,.24-1.13-.41-.07-.29-.12-.58-.1-.86,.07-.98,.36-1.9,.91-2.71Zm-17.95,1.51c-.46,.98-1.13,1.82-2.02,2.47-.55,.36-.91,.24-1.13-.41-.07-.29-.12-.58-.1-.86,.07-.98,.36-1.9,.91-2.71,.12-.22,.26-.41,.41-.6,.05-.07,.1-.1,.17-.12,.05,0,.1,.05,.12,.14,.31,.77,.82,1.34,1.54,1.73,.14,.07,.17,.19,.1,.36Zm.62-1.49c-.02,.07-.05,.12-.1,.14-.05,.02-.1,.02-.14-.05-.26-.34-.43-.72-.46-1.13-.02-.41,.12-.79,.43-1.15,.02-.02,.07-.05,.1-.07,.24-.22,.38-.17,.43,.14,.02,.12,.02,.26,.02,.38,.02,.07,.02,.12,.02,.19-.02,.53-.12,1.03-.31,1.54Zm4.75,3.86c0,.17-.02,.31-.05,.41-.07,.14-.17,.22-.31,.19-.46-.07-.86-.24-1.22-.46-.17-.12-.17-.22,.02-.29l.77-.24,.43-.14c.17-.02,.29,.02,.31,.19,.02,.1,.02,.19,.05,.26v.07Z"/>
      <path class="cls-1" d="M131.05,57.53h-4.37v-.04c.7-.42,1.33-.82,1.88-1.2s1.02-.75,1.4-1.12,.67-.75,.87-1.13,.3-.8,.3-1.24c0-.71-.27-1.27-.82-1.67-.55-.4-1.24-.6-2.06-.6-1.1,0-2.2,.37-3.3,1.12l.33,.58c.68-.36,1.35-.54,2.02-.54,.57,0,1.05,.16,1.44,.47s.59,.74,.59,1.28c0,.26-.04,.52-.13,.76s-.21,.48-.38,.71c-.17,.23-.37,.46-.62,.7s-.53,.48-.85,.74c-.32,.26-.7,.55-1.14,.85s-.93,.64-1.49,.99l.06,.72c1.02-.02,2.14-.03,3.35-.03,1.31,0,2.56,0,3.75,.03l.06-.06,.18-2.82-.39,.07-.69,1.45Z"/>
      <path class="cls-1" d="M137.82,50.52c-1.29,0-2.32,.4-3.11,1.19-.79,.79-1.18,1.86-1.18,3.2s.38,2.33,1.13,3.08,1.74,1.12,2.97,1.12,2.3-.41,3.1-1.22c.79-.81,1.19-1.9,1.19-3.27,0-1.28-.37-2.29-1.11-3.01-.74-.72-1.73-1.08-2.98-1.08Zm1.68,7c-.37,.59-.95,.89-1.73,.89s-1.36-.33-1.77-.99-.62-1.57-.62-2.73,.18-2.04,.55-2.62,.95-.87,1.74-.87,1.37,.3,1.78,.91c.41,.61,.61,1.51,.61,2.7s-.19,2.12-.56,2.72Z"/>
      <path class="cls-1" d="M149.2,57.53h-4.37v-.04c.7-.42,1.33-.82,1.88-1.2s1.02-.75,1.4-1.12,.67-.75,.87-1.13,.3-.8,.3-1.24c0-.71-.27-1.27-.82-1.67-.55-.4-1.24-.6-2.06-.6-1.1,0-2.2,.37-3.3,1.12l.33,.58c.68-.36,1.35-.54,2.02-.54,.57,0,1.05,.16,1.44,.47s.59,.74,.59,1.28c0,.26-.04,.52-.13,.76s-.21,.48-.38,.71c-.17,.23-.37,.46-.62,.7s-.53,.48-.85,.74c-.32,.26-.7,.55-1.14,.85s-.93,.64-1.49,.99l.06,.72c1.02-.02,2.14-.03,3.35-.03,1.31,0,2.56,0,3.75,.03l.06-.06,.18-2.82-.39,.07-.69,1.45Z"/>
      <path class="cls-1" d="M160.22,58.45l-.04-.9h-2.01v-3.37c0-1.14,.02-2.36,.05-3.67l-1.03,.06c-1,1.15-1.99,2.34-2.97,3.56s-1.93,2.44-2.86,3.67l.06,.64c1.15-.02,2.12-.03,2.93-.03h2.19v1.61c0,.85,0,1.68-.02,2.5l.09,.07c.5-.09,1.04-.17,1.6-.23-.03-.84-.04-1.67-.04-2.49v-1.47c.72,0,1.4,0,2.05,.03Zm-3.67-.9h-3.96c.64-.9,1.3-1.77,1.96-2.61,.66-.84,1.33-1.64,1.99-2.38v4.99Z"/>
      <path class="cls-1" d="M131.56,42.59l-7.42-1.91c-.84-.22-1.28-.78-1.31-1.68-.06-2.52-.09-5.83-.09-9.94v-11.38c0-5.78,.19-11.4,.56-16.84l-.42-.37c-6.25,1.12-12.5,2.15-18.75,3.08l.23,1.96,9.56,.93c.03,.98,.05,2,.07,3.03H0v1H114.01c.07,3.81,.1,8,.1,12.57v7.74c0,3.08-.03,5.88-.09,8.4-.01,.28-.09,.52-.21,.72H0v1H111.84l-6.69,1.68,.19,1.87c5.72-.09,10.11-.14,13.16-.14s7.45,.05,13.2,.14l-.14-1.87Z"/>
      <path class="cls-1" d="M284.95,9.47h-107.1c-.81-1.37-1.76-2.62-2.9-3.73-3.91-3.83-9.19-5.74-15.82-5.74s-12.32,2.1-16.5,6.3c-4.18,4.2-6.27,9.86-6.27,16.98s2,12.38,5.99,16.33c3.99,3.95,9.24,5.93,15.75,5.93,5.7,0,10.48-1.55,14.36-4.62h112.49v-1h-111.33c.3-.28,.62-.54,.91-.84,4.2-4.31,6.29-10.1,6.29-17.38,0-4.35-.81-8.09-2.41-11.22h106.53v-1Zm-116.9,27.66c-1.98,3.14-5.05,4.71-9.2,4.71s-7.23-1.76-9.41-5.27c-2.18-3.51-3.27-8.35-3.27-14.51s.98-10.82,2.93-13.9c1.95-3.08,5.04-4.62,9.25-4.62s7.26,1.61,9.43,4.83c2.17,3.22,3.25,8,3.25,14.35s-.99,11.27-2.98,14.42Z"/>
    </g>
  </g>
</svg>